<svg width="128" height="96" viewBox="0 0 128 96" fill="none" xmlns="http://www.w3.org/2000/svg">
  <defs>
    <radialGradient id="halo" cx="0" cy="0" r="1" gradientUnits="userSpaceOnUse" gradientTransform="translate(64 48) rotate(90) scale(34 52)">
      <stop stop-color="#7BE4FF" stop-opacity="0.28"/>
      <stop offset="1" stop-color="#7BE4FF" stop-opacity="0"/>
    </radialGradient>
    <linearGradient id="metal" x1="0" y1="18" x2="0" y2="78" gradientUnits="userSpaceOnUse">
      <stop stop-color="#DFF9FF"/>
      <stop offset="0.35" stop-color="#8FDBF0"/>
      <stop offset="1" stop-color="#2E6D82"/>
    </linearGradient>
    <linearGradient id="trim" x1="36" y1="18" x2="92" y2="78" gradientUnits="userSpaceOnUse">
      <stop stop-color="#F7FEFF"/>
      <stop offset="1" stop-color="#76CCE4"/>
    </linearGradient>
    <linearGradient id="beam" x1="64" y1="22" x2="64" y2="58" gradientUnits="userSpaceOnUse">
      <stop stop-color="#ECFDFF"/>
      <stop offset="0.5" stop-color="#A3F0FF"/>
      <stop offset="1" stop-color="#56C2E0"/>
    </linearGradient>
  </defs>

  <ellipse cx="64" cy="48" rx="46" ry="30" fill="url(#halo)"/>

  <g opacity="0.9">
    <path d="M34 79H50L47 33H37L34 79Z" fill="#0C2A37" stroke="url(#metal)" stroke-width="2.5"/>
    <path d="M78 79H94L91 33H81L78 79Z" fill="#0C2A37" stroke="url(#metal)" stroke-width="2.5"/>
    <path d="M31 83H53V89H31V83Z" fill="#0E3445" stroke="#8EE7FF" stroke-opacity="0.42" stroke-width="1.5"/>
    <path d="M75 83H97V89H75V83Z" fill="#0E3445" stroke="#8EE7FF" stroke-opacity="0.42" stroke-width="1.5"/>
    <path d="M36 33L42 18L48 33H36Z" fill="#102F3B" stroke="url(#trim)" stroke-width="2"/>
    <path d="M80 33L86 18L92 33H80Z" fill="#102F3B" stroke="url(#trim)" stroke-width="2"/>
    <path d="M50 40H78" stroke="#BFF6FF" stroke-opacity="0.45" stroke-width="1.5" stroke-dasharray="4 4"/>
    <path d="M46 52C54 44 74 44 82 52" stroke="url(#beam)" stroke-width="4" stroke-linecap="round"/>
    <path d="M46 58C54 52 74 52 82 58" stroke="#D9FCFF" stroke-opacity="0.72" stroke-width="2.5" stroke-linecap="round"/>
    <circle cx="64" cy="55" r="4.5" fill="#E8FCFF"/>
    <circle cx="64" cy="55" r="9" stroke="#A6EEFF" stroke-opacity="0.4" stroke-width="1.5"/>
    <path d="M43 41L48 45" stroke="#D6FBFF" stroke-opacity="0.82" stroke-width="2" stroke-linecap="round"/>
    <path d="M85 41L80 45" stroke="#D6FBFF" stroke-opacity="0.82" stroke-width="2" stroke-linecap="round"/>
    <path d="M42 49L47 54" stroke="#D6FBFF" stroke-opacity="0.62" stroke-width="1.6" stroke-linecap="round"/>
    <path d="M86 49L81 54" stroke="#D6FBFF" stroke-opacity="0.62" stroke-width="1.6" stroke-linecap="round"/>
  </g>

  <ellipse cx="64" cy="86" rx="38" ry="4" fill="#70DFFF" fill-opacity="0.14"/>
</svg>
