<svg width="128" height="128" viewBox="0 0 128 128" fill="none" xmlns="http://www.w3.org/2000/svg">
  <path d="M21 89L39 76L66 76L48 89H21Z" fill="#AE6E31"/>
  <path d="M39 76L39 56L66 56L66 76H39Z" fill="#D7E0EA"/>
  <path d="M66 76L80 66L80 46L66 56V76Z" fill="#8E99AA"/>
  <path d="M39 56L57 46L80 46L66 56H39Z" fill="#EDC16D"/>

  <path d="M45 90L64 76L95 76L76 90H45Z" fill="#BF8037"/>
  <path d="M64 76L64 42L95 42L95 76H64Z" fill="#E5ECF3"/>
  <path d="M95 76L111 64L111 30L95 42V76Z" fill="#94A0B1"/>
  <path d="M64 42L82 30L111 30L95 42H64Z" fill="#FFD98D"/>
  <path d="M75 90L75 63L86 63L86 90H75Z" fill="#263347"/>
  <rect x="79" y="52" width="4" height="7" rx="1.2" fill="#F6DA94"/>
  <rect x="86" y="52" width="4" height="7" rx="1.2" fill="#F6DA94"/>

  <path d="M86 42V24L91 20L96 24V35L86 42Z" fill="#A7B3C3"/>
  <path d="M27 74L27 59L34 54L34 69L27 74Z" fill="#98A4B6"/>
  <path d="M60 95L88 95" stroke="#D5A14C" stroke-width="4" stroke-linecap="round"/>
</svg>
