<svg width="128" height="128" viewBox="0 0 128 128" fill="none" xmlns="http://www.w3.org/2000/svg">
  <path d="M16 92L49 68L76 68L43 92H16Z" fill="#76573B"/>
  <path d="M49 68L49 60L76 60L76 68H49Z" fill="#A88357"/>
  <path d="M76 68L88 60L88 52L76 60V68Z" fill="#68503A"/>
  <path d="M49 60L63 52L88 52L76 60H49Z" fill="#C6A06B"/>

  <path d="M54 87L77 70L111 70L88 87H54Z" fill="#806144"/>
  <path d="M77 70L77 48L111 48L111 70H77Z" fill="#B18B60"/>
  <path d="M111 70L122 62L122 40L111 48V70Z" fill="#71573F"/>
  <path d="M77 48L99 40L122 40L111 48H77Z" fill="#D8B076"/>

  <rect x="54" y="68" width="5" height="20" rx="1.5" fill="#5B4635"/>
  <rect x="72" y="68" width="5" height="22" rx="1.5" fill="#5B4635"/>
  <rect x="91" y="70" width="5" height="20" rx="1.5" fill="#5B4635"/>
  <rect x="108" y="70" width="5" height="18" rx="1.5" fill="#5B4635"/>

  <path d="M71 58L86 47L103 47L88 58H71Z" fill="#99724A"/>
  <path d="M86 47L86 37L103 37L103 47H86Z" fill="#C79A62"/>
  <path d="M103 47L111 41L111 31L103 37V47Z" fill="#7E603F"/>
  <path d="M86 37L101 31L111 31L103 37H86Z" fill="#E0B77E"/>

  <circle cx="29" cy="92" r="8" fill="#2A3445"/>
  <circle cx="29" cy="92" r="4.5" fill="#BFC7D0"/>
  <path d="M29 92L41 84" stroke="#2A3445" stroke-width="3" stroke-linecap="round"/>

</svg>
