<svg width="128" height="128" viewBox="0 0 128 128" fill="none" xmlns="http://www.w3.org/2000/svg">


  <rect x="30.5" y="73" width="2.75" height="18.04" rx="0.8999999999999999" fill="#8B1E1E"/>
  <path d="M29.375 42L32.25 46.35L29.375 49.5L26.5 46.35Z" fill="#F2AF18"/>
<path d="M24.125 47.25L27.15 51.455L24.125 54.5L20.4 51.455Z" fill="#F2AF18"/>
<path d="M30.125 47L33.25 51.205L30.125 54.25L27 51.205Z" fill="#FFDD73"/>
<path d="M36.125 47.25L39.85 51.455L36.125 54.5L33.1 51.455Z" fill="#F2AF18"/>
<path d="M18.875 52.75L22 56.81L18.875 59.75L14.75 56.81Z" fill="#F2AF18"/>
<path d="M24.875 52.25L28.05 56.455L24.875 59.5L21.3 56.455Z" fill="#FFDD73"/>
<path d="M30.625 51.75L34 56.1L30.625 59.25L27.25 56.1Z" fill="#F2AF18"/>
<path d="M36.375 52.25L39.95 56.455L36.375 59.5L33.2 56.455Z" fill="#FFDD73"/>
<path d="M42.875 52.75L47 56.81L42.875 59.75L39.75 56.81Z" fill="#F2AF18"/>
<path d="M20.875 59L23.9 62.915L20.875 65.75L17.15 62.915Z" fill="#E98711"/>
<path d="M26.375 58L29.6 62.205L26.375 65.25L22.85 62.205Z" fill="#F2AF18"/>
<path d="M31.25 57.4L34.5 61.605L31.25 64.65L28 61.605Z" fill="#FFDD73"/>
<path d="M36.625 58L40.15 62.205L36.625 65.25L33.4 62.205Z" fill="#F2AF18"/>
<path d="M42.125 59L45.85 62.915L42.125 65.75L39.1 62.915Z" fill="#E98711"/>
<path d="M26.375 64.25L29.4 68.02L26.375 70.75L23.15 68.02Z" fill="#F2AF18"/>
<path d="M31 63.6L34 67.515L31 70.35L28 67.515Z" fill="#FFDD73"/>
<path d="M35.875 64.25L39.1 68.02L35.875 70.75L32.85 68.02Z" fill="#F2AF18"/>


  <path d="M42 76L52 69H72L62 76H42Z" fill="#9A6B38"/>
  <path d="M52 69V56H72V69H52Z" fill="#D6D1C6"/>
  <path d="M72 69L82 62V49L72 56V69Z" fill="#9EA7B5"/>
  <path d="M52 56L62 49H82L72 56H52Z" fill="#D1964D"/>
  <path d="M60 69V60H66V69" fill="#2D394A"/>


  <rect x="96.5" y="63" width="2.75" height="22.14" rx="0.8999999999999999" fill="#8B1E1E"/>
  <path d="M95.375 32L98.25 36.35L95.375 39.5L92.5 36.35Z" fill="#F8BF24"/>
<path d="M90.125 37.25L93.15 41.455L90.125 44.5L86.4 41.455Z" fill="#F8BF24"/>
<path d="M96.125 37L99.25 41.205L96.125 44.25L93 41.205Z" fill="#FFE892"/>
<path d="M102.125 37.25L105.85 41.455L102.125 44.5L99.1 41.455Z" fill="#F8BF24"/>
<path d="M84.875 42.75L88 46.81L84.875 49.75L80.75 46.81Z" fill="#F8BF24"/>
<path d="M90.875 42.25L94.05 46.455L90.875 49.5L87.3 46.455Z" fill="#FFE892"/>
<path d="M96.625 41.75L100 46.1L96.625 49.25L93.25 46.1Z" fill="#F8BF24"/>
<path d="M102.375 42.25L105.95 46.455L102.375 49.5L99.2 46.455Z" fill="#FFE892"/>
<path d="M108.875 42.75L113 46.81L108.875 49.75L105.75 46.81Z" fill="#F8BF24"/>
<path d="M86.875 49L89.9 52.915L86.875 55.75L83.15 52.915Z" fill="#F49517"/>
<path d="M92.375 48L95.6 52.205L92.375 55.25L88.85 52.205Z" fill="#F8BF24"/>
<path d="M97.25 47.4L100.5 51.605L97.25 54.65L94 51.605Z" fill="#FFE892"/>
<path d="M102.625 48L106.15 52.205L102.625 55.25L99.4 52.205Z" fill="#F8BF24"/>
<path d="M108.125 49L111.85 52.915L108.125 55.75L105.1 52.915Z" fill="#F49517"/>
<path d="M92.375 54.25L95.4 58.019999999999996L92.375 60.75L89.15 58.019999999999996Z" fill="#F8BF24"/>
<path d="M97 53.6L100 57.515L97 60.35L94 57.515Z" fill="#FFE892"/>
<path d="M101.875 54.25L105.1 58.019999999999996L101.875 60.75L98.85 58.019999999999996Z" fill="#F8BF24"/>


  <ellipse cx="88" cy="89" rx="6" ry="3" fill="#C48E53"/>
  <path d="M82 89C83 99, 93 99, 94 89V100C93 108, 83 108, 82 100V89Z" fill="#8B5D34"/>
  <path d="M83 95H93" stroke="#515B68" stroke-width="2"/>
  <path d="M83 102H93" stroke="#515B68" stroke-width="2"/>


</svg>
