<svg width="128" height="128" viewBox="0 0 128 128" fill="none" xmlns="http://www.w3.org/2000/svg">


  <rect x="36.2" y="71.2" width="3.3000000000000003" height="24.599999999999998" rx="1.08" fill="#8B1E1E"/>
  <path d="M34.85 34L38.3 39.22L34.85 43L31.4 39.22Z" fill="#F5B21B"/>
<path d="M28.55 40.3L32.18 45.346L28.55 49L24.08 45.346Z" fill="#F5B21B"/>
<path d="M35.75 40L39.5 45.046L35.75 48.7L32 45.046Z" fill="#FFE17D"/>
<path d="M42.95 40.3L47.42000000000001 45.346L42.95 49L39.32000000000001 45.346Z" fill="#F5B21B"/>
<path d="M22.25 46.9L25.999999999999996 51.772L22.25 55.3L17.299999999999997 51.772Z" fill="#F5B21B"/>
<path d="M29.45 46.3L33.26 51.346L29.45 55L25.16 51.346Z" fill="#FFE17D"/>
<path d="M36.349999999999994 45.7L40.4 50.92L36.349999999999994 54.7L32.3 50.92Z" fill="#F5B21B"/>
<path d="M43.25 46.3L47.540000000000006 51.346L43.25 55L39.440000000000005 51.346Z" fill="#FFE17D"/>
<path d="M51.050000000000004 46.9L56.00000000000001 51.772L51.050000000000004 55.3L47.300000000000004 51.772Z" fill="#F5B21B"/>
<path d="M24.650000000000002 54.4L28.28 59.098L24.650000000000002 62.5L20.18 59.098Z" fill="#F28D11"/>
<path d="M31.250000000000004 53.2L35.120000000000005 58.246L31.250000000000004 61.900000000000006L27.020000000000003 58.246Z" fill="#F5B21B"/>
<path d="M37.1 52.480000000000004L41 57.526L37.1 61.18000000000001L33.2 57.526Z" fill="#FFE17D"/>
<path d="M43.55 53.2L47.78 58.246L43.55 61.900000000000006L39.68 58.246Z" fill="#F5B21B"/>
<path d="M50.14999999999999 54.4L54.62 59.098L50.14999999999999 62.5L46.519999999999996 59.098Z" fill="#F28D11"/>
<path d="M31.25 60.7L34.88 65.224L31.25 68.5L27.38 65.224Z" fill="#F5B21B"/>
<path d="M36.800000000000004 59.92L40.400000000000006 64.618L36.800000000000004 68.02000000000001L33.2 64.618Z" fill="#FFE17D"/>
<path d="M42.650000000000006 60.7L46.52 65.224L42.650000000000006 68.5L39.02 65.224Z" fill="#F5B21B"/>


  <rect x="69.9" y="65.4" width="3.8500000000000005" height="34.43999999999999" rx="1.26" fill="#8B1E1E"/>
  <path d="M68.325 22L72.35 28.09L68.325 32.5L64.3 28.09Z" fill="#F8BA1D"/>
<path d="M60.975 29.35L65.21000000000001 35.237L60.975 39.5L55.76 35.237Z" fill="#F8BA1D"/>
<path d="M69.375 29L73.75 34.887L69.375 39.15L65 34.887Z" fill="#FFE58B"/>
<path d="M77.775 29.35L82.99000000000001 35.237L77.775 39.5L73.54 35.237Z" fill="#F8BA1D"/>
<path d="M53.625 37.05L57.99999999999999 42.733999999999995L53.625 46.849999999999994L47.849999999999994 42.733999999999995Z" fill="#F8BA1D"/>
<path d="M62.025 36.349999999999994L66.47 42.236999999999995L62.025 46.49999999999999L57.019999999999996 42.236999999999995Z" fill="#FFE58B"/>
<path d="M70.07499999999999 35.65L74.8 41.739999999999995L70.07499999999999 46.15L65.35 41.739999999999995Z" fill="#F8BA1D"/>
<path d="M78.125 36.349999999999994L83.13000000000001 42.236999999999995L78.125 46.49999999999999L73.68 42.236999999999995Z" fill="#FFE58B"/>
<path d="M87.22500000000001 37.05L93.00000000000001 42.733999999999995L87.22500000000001 46.849999999999994L82.85000000000001 42.733999999999995Z" fill="#F8BA1D"/>
<path d="M56.425000000000004 45.8L60.660000000000004 51.281L56.425000000000004 55.25L51.21 51.281Z" fill="#F39213"/>
<path d="M64.125 44.400000000000006L68.64000000000001 50.287000000000006L64.125 54.550000000000004L59.190000000000005 50.287000000000006Z" fill="#F8BA1D"/>
<path d="M70.95 43.56L75.5 49.447L70.95 53.71L66.4 49.447Z" fill="#FFE58B"/>
<path d="M78.475 44.400000000000006L83.41 50.287000000000006L78.475 54.550000000000004L73.96 50.287000000000006Z" fill="#F8BA1D"/>
<path d="M86.17499999999998 45.8L91.38999999999999 51.281L86.17499999999998 55.25L81.93999999999998 51.281Z" fill="#F39213"/>
<path d="M64.125 53.150000000000006L68.36 58.428000000000004L64.125 62.25000000000001L59.61 58.428000000000004Z" fill="#F8BA1D"/>
<path d="M70.60000000000001 52.24L74.80000000000001 57.721000000000004L70.60000000000001 61.690000000000005L66.4 57.721000000000004Z" fill="#FFE58B"/>
<path d="M77.42500000000001 53.150000000000006L81.94000000000001 58.428000000000004L77.42500000000001 62.25000000000001L73.19000000000001 58.428000000000004Z" fill="#F8BA1D"/>


  <rect x="106.2" y="73.2" width="3.3000000000000003" height="24.599999999999998" rx="1.08" fill="#8B1E1E"/>
  <path d="M104.85000000000001 36L108.30000000000001 41.22L104.85000000000001 45L101.4 41.22Z" fill="#F3AE18"/>
<path d="M98.55 42.3L102.17999999999999 47.346L98.55 51L94.08 47.346Z" fill="#F3AE18"/>
<path d="M105.75 42L109.5 47.046L105.75 50.7L102 47.046Z" fill="#FFDD72"/>
<path d="M112.95 42.3L117.42 47.346L112.95 51L109.32000000000001 47.346Z" fill="#F3AE18"/>
<path d="M92.25 48.9L96.00000000000001 53.772L92.25 57.3L87.30000000000001 53.772Z" fill="#F3AE18"/>
<path d="M99.45 48.3L103.26 53.346L99.45 57L95.16000000000001 53.346Z" fill="#FFDD72"/>
<path d="M106.35 47.7L110.4 52.92L106.35 56.7L102.3 52.92Z" fill="#F3AE18"/>
<path d="M113.25 48.3L117.54 53.346L113.25 57L109.44 53.346Z" fill="#FFDD72"/>
<path d="M121.05 48.9L126 53.772L121.05 57.3L117.3 53.772Z" fill="#F3AE18"/>
<path d="M94.64999999999999 56.4L98.27999999999999 61.098L94.64999999999999 64.5L90.17999999999999 61.098Z" fill="#EB8610"/>
<path d="M101.25 55.2L105.12 60.246L101.25 63.900000000000006L97.02 60.246Z" fill="#F3AE18"/>
<path d="M107.10000000000001 54.480000000000004L111 59.526L107.10000000000001 63.18000000000001L103.2 59.526Z" fill="#FFDD72"/>
<path d="M113.55 55.2L117.78 60.246L113.55 63.900000000000006L109.68 60.246Z" fill="#F3AE18"/>
<path d="M120.14999999999999 56.4L124.61999999999999 61.098L120.14999999999999 64.5L116.52 61.098Z" fill="#EB8610"/>
<path d="M101.25 62.7L104.88 67.224L101.25 70.5L97.38 67.224Z" fill="#F3AE18"/>
<path d="M106.8 61.92L110.4 66.618L106.8 70.02000000000001L103.2 66.618Z" fill="#FFDD72"/>
<path d="M112.65 62.7L116.52000000000001 67.224L112.65 70.5L109.02000000000001 67.224Z" fill="#F3AE18"/>


</svg>
