<svg width="128" height="128" viewBox="0 0 128 128" fill="none" xmlns="http://www.w3.org/2000/svg">


  <path d="M18 82L28 75H48L38 82H18Z" fill="#9A6B38"/>
  <path d="M28 75V62H48V75H28Z" fill="#D6D1C6"/>
  <path d="M48 75L58 68V55L48 62V75Z" fill="#9EA7B5"/>
  <path d="M28 62L38 55H58L48 62H28Z" fill="#CA8D46"/>
  <path d="M36 75V66H42V75" fill="#2D394A"/>


  <rect x="78.2" y="63.2" width="3.3000000000000003" height="26.076" rx="1.08" fill="#8B1E1E"/>
  <path d="M76.85000000000001 26L80.30000000000001 31.22L76.85000000000001 35L73.4 31.22Z" fill="#F6B71B"/>
<path d="M70.55 32.3L74.17999999999999 37.346L70.55 41L66.08 37.346Z" fill="#F6B71B"/>
<path d="M77.75 32L81.5 37.046L77.75 40.7L74 37.046Z" fill="#FFE481"/>
<path d="M84.95 32.3L89.42 37.346L84.95 41L81.32000000000001 37.346Z" fill="#F6B71B"/>
<path d="M64.25 38.9L68 43.772L64.25 47.3L59.3 43.772Z" fill="#F6B71B"/>
<path d="M71.45 38.3L75.26 43.346L71.45 47L67.16000000000001 43.346Z" fill="#FFE481"/>
<path d="M78.35 37.7L82.4 42.92L78.35 46.7L74.3 42.92Z" fill="#F6B71B"/>
<path d="M85.25 38.3L89.54 43.346L85.25 47L81.44 43.346Z" fill="#FFE481"/>
<path d="M93.05 38.9L98 43.772L93.05 47.3L89.3 43.772Z" fill="#F6B71B"/>
<path d="M66.65 46.4L70.28 51.098L66.65 54.5L62.18 51.098Z" fill="#EF9014"/>
<path d="M73.25 45.2L77.12 50.246L73.25 53.900000000000006L69.02 50.246Z" fill="#F6B71B"/>
<path d="M79.10000000000001 44.480000000000004L83 49.526L79.10000000000001 53.18000000000001L75.2 49.526Z" fill="#FFE481"/>
<path d="M85.55 45.2L89.78 50.246L85.55 53.900000000000006L81.68 50.246Z" fill="#F6B71B"/>
<path d="M92.14999999999999 46.4L96.61999999999999 51.098L92.14999999999999 54.5L88.52 51.098Z" fill="#EF9014"/>
<path d="M73.25 52.7L76.88 57.224000000000004L73.25 60.5L69.38 57.224000000000004Z" fill="#F6B71B"/>
<path d="M78.8 51.92L82.4 56.618L78.8 60.02L75.2 56.618Z" fill="#FFE481"/>
<path d="M84.65 52.7L88.52000000000001 57.224000000000004L84.65 60.5L81.02000000000001 57.224000000000004Z" fill="#F6B71B"/>


  <rect x="103.76" y="69.75999999999999" width="2.64" height="16.924799999999998" rx="0.864" fill="#8B1E1E"/>
  <path d="M102.68 40L105.44 44.176L102.68 47.2L99.92 44.176Z" fill="#F1A814"/>
<path d="M97.64 45.04L100.54400000000001 49.0768L97.64 52L94.06400000000001 49.0768Z" fill="#F1A814"/>
<path d="M103.4 44.8L106.4 48.8368L103.4 51.76L100.4 48.8368Z" fill="#FFD967"/>
<path d="M109.16 45.04L112.736 49.0768L109.16 52L106.256 49.0768Z" fill="#F1A814"/>
<path d="M92.60000000000001 50.32L95.6 54.2176L92.60000000000001 57.04L88.64 54.2176Z" fill="#F1A814"/>
<path d="M98.36 49.839999999999996L101.40800000000002 53.876799999999996L98.36 56.8L94.92800000000001 53.876799999999996Z" fill="#FFD967"/>
<path d="M103.88 49.36L107.12 53.536L103.88 56.56L100.64 53.536Z" fill="#F1A814"/>
<path d="M109.39999999999999 49.839999999999996L112.832 53.876799999999996L109.39999999999999 56.8L106.35199999999999 53.876799999999996Z" fill="#FFD967"/>
<path d="M115.64 50.32L119.6 54.2176L115.64 57.04L112.64 54.2176Z" fill="#F1A814"/>
<path d="M94.52 56.32L97.424 60.0784L94.52 62.8L90.944 60.0784Z" fill="#E58110"/>
<path d="M99.8 55.36L102.896 59.3968L99.8 62.32L96.416 59.3968Z" fill="#F1A814"/>
<path d="M104.48 54.784L107.6 58.8208L104.48 61.744L101.36 58.8208Z" fill="#FFD967"/>
<path d="M109.64 55.36L113.02400000000002 59.3968L109.64 62.32L106.54400000000001 59.3968Z" fill="#F1A814"/>
<path d="M114.91999999999999 56.32L118.496 60.0784L114.91999999999999 62.8L112.01599999999999 60.0784Z" fill="#E58110"/>
<path d="M99.8 61.36L102.704 64.9792L99.8 67.6L96.704 64.9792Z" fill="#F1A814"/>
<path d="M104.24 60.736000000000004L107.12 64.4944L104.24 67.21600000000001L101.36 64.4944Z" fill="#FFD967"/>
<path d="M108.92 61.36L112.016 64.9792L108.92 67.6L106.016 64.9792Z" fill="#F1A814"/>


  <ellipse cx="34" cy="94" rx="8" ry="6" fill="#D3B55E"/>
  <path d="M29 94L34 88L39 94" fill="#D3B55E"/>


</svg>
