<svg width="128" height="128" viewBox="0 0 128 128" fill="none" xmlns="http://www.w3.org/2000/svg">


  <rect x="40.2" y="63.2" width="3.3000000000000003" height="30.749999999999996" rx="1.08" fill="#8B1E1E"/>
  <path d="M38.85 26L42.3 31.22L38.85 35L35.4 31.22Z" fill="#F5B21B"/>
<path d="M32.55 32.3L36.18 37.346L32.55 41L28.08 37.346Z" fill="#F5B21B"/>
<path d="M39.75 32L43.5 37.046L39.75 40.7L36 37.046Z" fill="#FFE17D"/>
<path d="M46.95 32.3L51.42000000000001 37.346L46.95 41L43.32000000000001 37.346Z" fill="#F5B21B"/>
<path d="M26.25 38.9L29.999999999999996 43.772L26.25 47.3L21.299999999999997 43.772Z" fill="#F5B21B"/>
<path d="M33.45 38.3L37.26 43.346L33.45 47L29.16 43.346Z" fill="#FFE17D"/>
<path d="M40.349999999999994 37.7L44.4 42.92L40.349999999999994 46.7L36.3 42.92Z" fill="#F5B21B"/>
<path d="M47.25 38.3L51.540000000000006 43.346L47.25 47L43.440000000000005 43.346Z" fill="#FFE17D"/>
<path d="M55.050000000000004 38.9L60.00000000000001 43.772L55.050000000000004 47.3L51.300000000000004 43.772Z" fill="#F5B21B"/>
<path d="M28.650000000000002 46.4L32.28 51.098L28.650000000000002 54.5L24.18 51.098Z" fill="#F28D11"/>
<path d="M35.25 45.2L39.120000000000005 50.246L35.25 53.900000000000006L31.020000000000003 50.246Z" fill="#F5B21B"/>
<path d="M41.1 44.480000000000004L45 49.526L41.1 53.18000000000001L37.2 49.526Z" fill="#FFE17D"/>
<path d="M47.55 45.2L51.78 50.246L47.55 53.900000000000006L43.68 50.246Z" fill="#F5B21B"/>
<path d="M54.14999999999999 46.4L58.62 51.098L54.14999999999999 54.5L50.519999999999996 51.098Z" fill="#F28D11"/>
<path d="M35.25 52.7L38.88 57.224000000000004L35.25 60.5L31.38 57.224000000000004Z" fill="#F5B21B"/>
<path d="M40.800000000000004 51.92L44.400000000000006 56.618L40.800000000000004 60.02L37.2 56.618Z" fill="#FFE17D"/>
<path d="M46.650000000000006 52.7L50.52 57.224000000000004L46.650000000000006 60.5L43.02 57.224000000000004Z" fill="#F5B21B"/>


  <rect x="72.2" y="67.2" width="3.3000000000000003" height="27.06" rx="1.08" fill="#8B1E1E"/>
  <path d="M70.85000000000001 30L74.30000000000001 35.22L70.85000000000001 39L67.4 35.22Z" fill="#F8BB20"/>
<path d="M64.55 36.3L68.17999999999999 41.346L64.55 45L60.08 41.346Z" fill="#F8BB20"/>
<path d="M71.75 36L75.5 41.046L71.75 44.7L68 41.046Z" fill="#FFE68E"/>
<path d="M78.95 36.3L83.42 41.346L78.95 45L75.32000000000001 41.346Z" fill="#F8BB20"/>
<path d="M58.25 42.9L61.99999999999999 47.772L58.25 51.3L53.3 47.772Z" fill="#F8BB20"/>
<path d="M65.45 42.3L69.26 47.346L65.45 51L61.16 47.346Z" fill="#FFE68E"/>
<path d="M72.35 41.7L76.4 46.92L72.35 50.7L68.3 46.92Z" fill="#F8BB20"/>
<path d="M79.25 42.3L83.54 47.346L79.25 51L75.44 47.346Z" fill="#FFE68E"/>
<path d="M87.05 42.9L92 47.772L87.05 51.3L83.3 47.772Z" fill="#F8BB20"/>
<path d="M60.650000000000006 50.4L64.28 55.098L60.650000000000006 58.5L56.18 55.098Z" fill="#F39314"/>
<path d="M67.25 49.2L71.12 54.246L67.25 57.900000000000006L63.02 54.246Z" fill="#F8BB20"/>
<path d="M73.10000000000001 48.480000000000004L77 53.526L73.10000000000001 57.18000000000001L69.2 53.526Z" fill="#FFE68E"/>
<path d="M79.55 49.2L83.78 54.246L79.55 57.900000000000006L75.68 54.246Z" fill="#F8BB20"/>
<path d="M86.14999999999999 50.4L90.61999999999999 55.098L86.14999999999999 58.5L82.52 55.098Z" fill="#F39314"/>
<path d="M67.25 56.7L70.88 61.224000000000004L67.25 64.5L63.38 61.224000000000004Z" fill="#F8BB20"/>
<path d="M72.8 55.92L76.4 60.618L72.8 64.02000000000001L69.2 60.618Z" fill="#FFE68E"/>
<path d="M78.65 56.7L82.52000000000001 61.224000000000004L78.65 64.5L75.02000000000001 61.224000000000004Z" fill="#F8BB20"/>


  <rect x="100.5" y="71" width="2.75" height="18.86" rx="0.8999999999999999" fill="#8B1E1E"/>
  <path d="M99.375 40L102.25 44.35L99.375 47.5L96.5 44.35Z" fill="#F1A915"/>
<path d="M94.125 45.25L97.15 49.455L94.125 52.5L90.4 49.455Z" fill="#F1A915"/>
<path d="M100.125 45L103.25 49.205L100.125 52.25L97 49.205Z" fill="#FFDA6A"/>
<path d="M106.125 45.25L109.85 49.455L106.125 52.5L103.1 49.455Z" fill="#F1A915"/>
<path d="M88.875 50.75L92 54.81L88.875 57.75L84.75 54.81Z" fill="#F1A915"/>
<path d="M94.875 50.25L98.05 54.455L94.875 57.5L91.3 54.455Z" fill="#FFDA6A"/>
<path d="M100.625 49.75L104 54.1L100.625 57.25L97.25 54.1Z" fill="#F1A915"/>
<path d="M106.375 50.25L109.95 54.455L106.375 57.5L103.2 54.455Z" fill="#FFDA6A"/>
<path d="M112.875 50.75L117 54.81L112.875 57.75L109.75 54.81Z" fill="#F1A915"/>
<path d="M90.875 57L93.9 60.915L90.875 63.75L87.15 60.915Z" fill="#E8830F"/>
<path d="M96.375 56L99.6 60.205L96.375 63.25L92.85 60.205Z" fill="#F1A915"/>
<path d="M101.25 55.4L104.5 59.605L101.25 62.65L98 59.605Z" fill="#FFDA6A"/>
<path d="M106.625 56L110.15 60.205L106.625 63.25L103.4 60.205Z" fill="#F1A915"/>
<path d="M112.125 57L115.85 60.915L112.125 63.75L109.1 60.915Z" fill="#E8830F"/>
<path d="M96.375 62.25L99.4 66.02L96.375 68.75L93.15 66.02Z" fill="#F1A915"/>
<path d="M101 61.6L104 65.515L101 68.35L98 65.515Z" fill="#FFDA6A"/>
<path d="M105.875 62.25L109.1 66.02L105.875 68.75L102.85 66.02Z" fill="#F1A915"/>


</svg>
