<svg width="128" height="128" viewBox="0 0 128 128" fill="none" xmlns="http://www.w3.org/2000/svg">


  <rect x="26.5" y="69" width="2.75" height="18.45" rx="0.8999999999999999" fill="#8B1E1E"/>
  <path d="M25.375 38L28.25 42.35L25.375 45.5L22.5 42.35Z" fill="#F2B319"/>
<path d="M20.125 43.25L23.15 47.455L20.125 50.5L16.4 47.455Z" fill="#F2B319"/>
<path d="M26.125 43L29.25 47.205L26.125 50.25L23 47.205Z" fill="#FFE07A"/>
<path d="M32.125 43.25L35.85 47.455L32.125 50.5L29.1 47.455Z" fill="#F2B319"/>
<path d="M14.875 48.75L18 52.81L14.875 55.75L10.75 52.81Z" fill="#F2B319"/>
<path d="M20.875 48.25L24.05 52.455L20.875 55.5L17.3 52.455Z" fill="#FFE07A"/>
<path d="M26.625 47.75L30 52.1L26.625 55.25L23.25 52.1Z" fill="#F2B319"/>
<path d="M32.375 48.25L35.95 52.455L32.375 55.5L29.2 52.455Z" fill="#FFE07A"/>
<path d="M38.875 48.75L43 52.81L38.875 55.75L35.75 52.81Z" fill="#F2B319"/>
<path d="M16.875 55L19.9 58.915L16.875 61.75L13.15 58.915Z" fill="#EA8E12"/>
<path d="M22.375 54L25.6 58.205L22.375 61.25L18.85 58.205Z" fill="#F2B319"/>
<path d="M27.25 53.4L30.5 57.605L27.25 60.65L24 57.605Z" fill="#FFE07A"/>
<path d="M32.625 54L36.15 58.205L32.625 61.25L29.4 58.205Z" fill="#F2B319"/>
<path d="M38.125 55L41.85 58.915L38.125 61.75L35.1 58.915Z" fill="#EA8E12"/>
<path d="M22.375 60.25L25.4 64.02L22.375 66.75L19.15 64.02Z" fill="#F2B319"/>
<path d="M27 59.6L30 63.515L27 66.35L24 63.515Z" fill="#FFE07A"/>
<path d="M31.875 60.25L35.1 64.02L31.875 66.75L28.85 64.02Z" fill="#F2B319"/>


  <rect x="50.5" y="59" width="2.75" height="21.525000000000002" rx="0.8999999999999999" fill="#8B1E1E"/>
  <path d="M49.375 28L52.25 32.35L49.375 35.5L46.5 32.35Z" fill="#F7BC1E"/>
<path d="M44.125 33.25L47.15 37.455L44.125 40.5L40.4 37.455Z" fill="#F7BC1E"/>
<path d="M50.125 33L53.25 37.205L50.125 40.25L47 37.205Z" fill="#FFE78E"/>
<path d="M56.125 33.25L59.85 37.455L56.125 40.5L53.1 37.455Z" fill="#F7BC1E"/>
<path d="M38.875 38.75L42 42.81L38.875 45.75L34.75 42.81Z" fill="#F7BC1E"/>
<path d="M44.875 38.25L48.05 42.455L44.875 45.5L41.3 42.455Z" fill="#FFE78E"/>
<path d="M50.625 37.75L54 42.1L50.625 45.25L47.25 42.1Z" fill="#F7BC1E"/>
<path d="M56.375 38.25L59.95 42.455L56.375 45.5L53.2 42.455Z" fill="#FFE78E"/>
<path d="M62.875 38.75L67 42.81L62.875 45.75L59.75 42.81Z" fill="#F7BC1E"/>
<path d="M40.875 45L43.9 48.915L40.875 51.75L37.15 48.915Z" fill="#F29114"/>
<path d="M46.375 44L49.6 48.205L46.375 51.25L42.85 48.205Z" fill="#F7BC1E"/>
<path d="M51.25 43.4L54.5 47.605L51.25 50.65L48 47.605Z" fill="#FFE78E"/>
<path d="M56.625 44L60.15 48.205L56.625 51.25L53.4 48.205Z" fill="#F7BC1E"/>
<path d="M62.125 45L65.85 48.915L62.125 51.75L59.1 48.915Z" fill="#F29114"/>
<path d="M46.375 50.25L49.4 54.019999999999996L46.375 56.75L43.15 54.019999999999996Z" fill="#F7BC1E"/>
<path d="M51 49.6L54 53.515L51 56.35L48 53.515Z" fill="#FFE78E"/>
<path d="M55.875 50.25L59.1 54.019999999999996L55.875 56.75L52.85 54.019999999999996Z" fill="#F7BC1E"/>


  <path d="M60 80L70 73H90L80 80H60Z" fill="#9A6B38"/>
  <path d="M70 73V60H90V73H70Z" fill="#D6D1C6"/>
  <path d="M90 73L100 66V53L90 60V73Z" fill="#9EA7B5"/>
  <path d="M70 60L80 53H100L90 60H70Z" fill="#C98B43"/>
  <path d="M78 73V64H84V73" fill="#2D394A"/>


  <ellipse cx="65" cy="93" rx="9" ry="7" fill="#CFB052"/>
  <path d="M59 93L65 86L71 93" fill="#CFB052"/>


  <ellipse cx="90" cy="89" rx="8" ry="6" fill="#DABC62"/>
  <path d="M85 89L90 83L95 89" fill="#DABC62"/>


</svg>
