<svg width="128" height="128" viewBox="0 0 128 128" fill="none" xmlns="http://www.w3.org/2000/svg">


  <rect x="34.2" y="75.2" width="3.3000000000000003" height="23.369999999999997" rx="1.08" fill="#8B1E1E"/>
  <path d="M32.85 38L36.3 43.22L32.85 47L29.4 43.22Z" fill="#F2AC18"/>
<path d="M26.55 44.3L30.18 49.346L26.55 53L22.08 49.346Z" fill="#F2AC18"/>
<path d="M33.75 44L37.5 49.046L33.75 52.7L30 49.046Z" fill="#FFDD73"/>
<path d="M40.95 44.3L45.42000000000001 49.346L40.95 53L37.32000000000001 49.346Z" fill="#F2AC18"/>
<path d="M20.25 50.9L24 55.772L20.25 59.3L15.3 55.772Z" fill="#F2AC18"/>
<path d="M27.45 50.3L31.26 55.346L27.45 59L23.16 55.346Z" fill="#FFDD73"/>
<path d="M34.349999999999994 49.7L38.4 54.92L34.349999999999994 58.7L30.299999999999997 54.92Z" fill="#F2AC18"/>
<path d="M41.25 50.3L45.540000000000006 55.346L41.25 59L37.440000000000005 55.346Z" fill="#FFDD73"/>
<path d="M49.050000000000004 50.9L54.00000000000001 55.772L49.050000000000004 59.3L45.300000000000004 55.772Z" fill="#F2AC18"/>
<path d="M22.650000000000002 58.4L26.28 63.098L22.650000000000002 66.5L18.18 63.098Z" fill="#EA8610"/>
<path d="M29.250000000000004 57.2L33.120000000000005 62.246L29.250000000000004 65.9L25.020000000000003 62.246Z" fill="#F2AC18"/>
<path d="M35.1 56.480000000000004L39 61.526L35.1 65.18L31.200000000000003 61.526Z" fill="#FFDD73"/>
<path d="M41.55 57.2L45.78 62.246L41.55 65.9L37.68 62.246Z" fill="#F2AC18"/>
<path d="M48.14999999999999 58.4L52.62 63.098L48.14999999999999 66.5L44.519999999999996 63.098Z" fill="#EA8610"/>
<path d="M29.25 64.7L32.88 69.224L29.25 72.5L25.38 69.224Z" fill="#F2AC18"/>
<path d="M34.800000000000004 63.92L38.400000000000006 68.618L34.800000000000004 72.02000000000001L31.200000000000003 68.618Z" fill="#FFDD73"/>
<path d="M40.650000000000006 64.7L44.52 69.224L40.650000000000006 72.5L37.02 69.224Z" fill="#F2AC18"/>


  <rect x="69.9" y="63.4" width="3.8500000000000005" height="35.87499999999999" rx="1.26" fill="#8B1E1E"/>
  <path d="M68.325 20L72.35 26.09L68.325 30.5L64.3 26.09Z" fill="#F9BE22"/>
<path d="M60.975 27.35L65.21000000000001 33.237L60.975 37.5L55.76 33.237Z" fill="#F9BE22"/>
<path d="M69.375 27L73.75 32.887L69.375 37.15L65 32.887Z" fill="#FFE792"/>
<path d="M77.775 27.35L82.99000000000001 33.237L77.775 37.5L73.54 33.237Z" fill="#F9BE22"/>
<path d="M53.625 35.05L57.99999999999999 40.733999999999995L53.625 44.849999999999994L47.849999999999994 40.733999999999995Z" fill="#F9BE22"/>
<path d="M62.025 34.349999999999994L66.47 40.236999999999995L62.025 44.49999999999999L57.019999999999996 40.236999999999995Z" fill="#FFE792"/>
<path d="M70.07499999999999 33.65L74.8 39.739999999999995L70.07499999999999 44.15L65.35 39.739999999999995Z" fill="#F9BE22"/>
<path d="M78.125 34.349999999999994L83.13000000000001 40.236999999999995L78.125 44.49999999999999L73.68 40.236999999999995Z" fill="#FFE792"/>
<path d="M87.22500000000001 35.05L93.00000000000001 40.733999999999995L87.22500000000001 44.849999999999994L82.85000000000001 40.733999999999995Z" fill="#F9BE22"/>
<path d="M56.425000000000004 43.8L60.660000000000004 49.281L56.425000000000004 53.25L51.21 49.281Z" fill="#F59716"/>
<path d="M64.125 42.400000000000006L68.64000000000001 48.287000000000006L64.125 52.550000000000004L59.190000000000005 48.287000000000006Z" fill="#F9BE22"/>
<path d="M70.95 41.56L75.5 47.447L70.95 51.71L66.4 47.447Z" fill="#FFE792"/>
<path d="M78.475 42.400000000000006L83.41 48.287000000000006L78.475 52.550000000000004L73.96 48.287000000000006Z" fill="#F9BE22"/>
<path d="M86.17499999999998 43.8L91.38999999999999 49.281L86.17499999999998 53.25L81.93999999999998 49.281Z" fill="#F59716"/>
<path d="M64.125 51.150000000000006L68.36 56.428000000000004L64.125 60.25000000000001L59.61 56.428000000000004Z" fill="#F9BE22"/>
<path d="M70.60000000000001 50.24L74.80000000000001 55.721000000000004L70.60000000000001 59.690000000000005L66.4 55.721000000000004Z" fill="#FFE792"/>
<path d="M77.42500000000001 51.150000000000006L81.94000000000001 56.428000000000004L77.42500000000001 60.25000000000001L73.19000000000001 56.428000000000004Z" fill="#F9BE22"/>


  <rect x="107.2" y="67.2" width="3.3000000000000003" height="26.567999999999998" rx="1.08" fill="#8B1E1E"/>
  <path d="M105.85000000000001 30L109.30000000000001 35.22L105.85000000000001 39L102.4 35.22Z" fill="#F4B31A"/>
<path d="M99.55 36.3L103.17999999999999 41.346L99.55 45L95.08 41.346Z" fill="#F4B31A"/>
<path d="M106.75 36L110.5 41.046L106.75 44.7L103 41.046Z" fill="#FFE07D"/>
<path d="M113.95 36.3L118.42 41.346L113.95 45L110.32000000000001 41.346Z" fill="#F4B31A"/>
<path d="M93.25 42.9L97.00000000000001 47.772L93.25 51.3L88.30000000000001 47.772Z" fill="#F4B31A"/>
<path d="M100.45 42.3L104.26 47.346L100.45 51L96.16000000000001 47.346Z" fill="#FFE07D"/>
<path d="M107.35 41.7L111.4 46.92L107.35 50.7L103.3 46.92Z" fill="#F4B31A"/>
<path d="M114.25 42.3L118.54 47.346L114.25 51L110.44 47.346Z" fill="#FFE07D"/>
<path d="M122.05 42.9L127 47.772L122.05 51.3L118.3 47.772Z" fill="#F4B31A"/>
<path d="M95.64999999999999 50.4L99.27999999999999 55.098L95.64999999999999 58.5L91.17999999999999 55.098Z" fill="#EF8E12"/>
<path d="M102.25 49.2L106.12 54.246L102.25 57.900000000000006L98.02 54.246Z" fill="#F4B31A"/>
<path d="M108.10000000000001 48.480000000000004L112 53.526L108.10000000000001 57.18000000000001L104.2 53.526Z" fill="#FFE07D"/>
<path d="M114.55 49.2L118.78 54.246L114.55 57.900000000000006L110.68 54.246Z" fill="#F4B31A"/>
<path d="M121.14999999999999 50.4L125.61999999999999 55.098L121.14999999999999 58.5L117.52 55.098Z" fill="#EF8E12"/>
<path d="M102.25 56.7L105.88 61.224000000000004L102.25 64.5L98.38 61.224000000000004Z" fill="#F4B31A"/>
<path d="M107.8 55.92L111.4 60.618L107.8 64.02000000000001L104.2 60.618Z" fill="#FFE07D"/>
<path d="M113.65 56.7L117.52000000000001 61.224000000000004L113.65 64.5L110.02000000000001 61.224000000000004Z" fill="#F4B31A"/>


</svg>
