<svg width="128" height="128" viewBox="0 0 128 128" fill="none" xmlns="http://www.w3.org/2000/svg">
  <g transform="translate(64 72) scale(1.22) translate(-64 -72)">
  <path d="M54 78L60 50L65 50L59 78H54Z" fill="#8B5D34"/>
  <path d="M89 78L83 50L88 50L94 78H89Z" fill="#8B5D34"/>
  <path d="M61 54H85" stroke="#B88349" stroke-width="4" stroke-linecap="round"/>
  <path d="M63 59C65 63, 65 70, 63 74C61 70, 61 63, 63 59Z" fill="#C8D2DA"/>
  <path d="M71 59C73 63, 73 70, 71 74C69 70, 69 63, 71 59Z" fill="#C8D2DA"/>
  <path d="M79 59C81 63, 81 70, 79 74C77 70, 77 63, 79 59Z" fill="#C8D2DA"/>
  <path d="M87 59C89 63, 89 70, 87 74C85 70, 85 63, 87 59Z" fill="#C8D2DA"/>
  <ellipse cx="24" cy="80" rx="6" ry="3" fill="#C48E53"/>
  <path d="M18 80C19 90, 29 90, 30 80V91C29 99, 19 99, 18 91V80Z" fill="#9B6A3A"/>
  <path d="M19 86H29" stroke="#515B68" stroke-width="2"/>
  <path d="M19 93H29" stroke="#515B68" stroke-width="2"/>
  <ellipse cx="37" cy="85" rx="6" ry="3" fill="#C48E53"/>
  <path d="M31 85C32 95, 42 95, 43 85V96C42 104, 32 104, 31 96V85Z" fill="#875A32"/>
  <path d="M32 91H42" stroke="#515B68" stroke-width="2"/>
  <path d="M32 98H42" stroke="#515B68" stroke-width="2"/>
  </g>
</svg>
