<svg width="128" height="128" viewBox="0 0 128 128" fill="none" xmlns="http://www.w3.org/2000/svg">


  <path d="M18 78L28 71H48L38 78H18Z" fill="#9A6B38"/>
  <path d="M28 71V58H48V71H28Z" fill="#D6D1C6"/>
  <path d="M48 71L58 64V51L48 58V71Z" fill="#9EA7B5"/>
  <path d="M28 58L38 51H58L48 58H28Z" fill="#C08C4A"/>
  <path d="M36 71V62H42V71" fill="#2D394A"/>


  <path d="M62 78L68 50L73 50L67 78H62Z" fill="#8B5D34"/>
  <path d="M97 78L91 50L96 50L102 78H97Z" fill="#8B5D34"/>
  <path d="M69 54H93" stroke="#B88349" stroke-width="4" stroke-linecap="round"/>
  <path d="M71 59C73 63, 73 70, 71 74C69 70, 69 63, 71 59Z" fill="#C8D2DA"/>
<path d="M79 59C81 63, 81 70, 79 74C77 70, 77 63, 79 59Z" fill="#C8D2DA"/>
<path d="M87 59C89 63, 89 70, 87 74C85 70, 85 63, 87 59Z" fill="#C8D2DA"/>
<path d="M95 59C97 63, 97 70, 95 74C93 70, 93 63, 95 59Z" fill="#C8D2DA"/>


  <ellipse cx="34" cy="87" rx="6" ry="3" fill="#C48E53"/>
  <path d="M28 87C29 97, 39 97, 40 87V98C39 106, 29 106, 28 98V87Z" fill="#875A32"/>
  <path d="M29 93H39" stroke="#515B68" stroke-width="2"/>
  <path d="M29 100H39" stroke="#515B68" stroke-width="2"/>


  <ellipse cx="46" cy="91" rx="6" ry="3" fill="#C48E53"/>
  <path d="M40 91C41 101, 51 101, 52 91V102C51 110, 41 110, 40 102V91Z" fill="#9B6A3A"/>
  <path d="M41 97H51" stroke="#515B68" stroke-width="2"/>
  <path d="M41 104H51" stroke="#515B68" stroke-width="2"/>


</svg>
