<svg xmlns="http://www.w3.org/2000/svg" viewBox="0 0 64 64">
  <defs>
    <filter id="shadow" x="-24%" y="-24%" width="148%" height="148%">
      <feDropShadow dx="0" dy="1.15" stdDeviation="1.1" flood-color="#403a33" flood-opacity="0.42"/>
    </filter>
  </defs>
  <g filter="url(#shadow)">
    
    <g>
      <path d="M 15 7 L 49 7 L 45 13 L 19 13 Z" fill="#6e6a62" stroke="#403a33" stroke-width="1.1" />
      <path d="M 17 8 L 47 8 L 43.5 11.7 L 20.5 11.7 Z" fill="#e7ddc8" opacity="0.82" />
      <path d="M 19 12.2 L 45 12.2 L 43.7 13 L 20.3 13 Z" fill="#bdb5a7" opacity="0.75" />
      
      <path d="M 22 7.2 L 20.6 12.8" stroke="#403a33" stroke-width="0.9" opacity="0.45" />
      <path d="M 31.5 7.2 L 30.5 12.8" stroke="#403a33" stroke-width="0.9" opacity="0.45" />
      <path d="M 41 7.2 L 40.2 12.8" stroke="#403a33" stroke-width="0.9" opacity="0.45" />
      <path d="M 18.5 10.3 L 44.8 10.3" stroke="#403a33" stroke-width="0.9" opacity="0.32" />
    
      <rect x="24" y="8.6" width="4.2" height="3.2" rx="1" fill="#786f62" opacity="0.95" />
      <rect x="35.8" y="8.6" width="4.2" height="3.2" rx="1" fill="#786f62" opacity="0.95" />
      <circle cx="25.4" cy="10.2" r="0.55" fill="#d2c3a6" />
      <circle cx="27" cy="10.2" r="0.55" fill="#d2c3a6" />
      <circle cx="37.2" cy="10.2" r="0.55" fill="#d2c3a6" />
      <circle cx="38.8" cy="10.2" r="0.55" fill="#d2c3a6" />
    
    </g>
  
    <g>
      <path d="M 5 15 L 13 11 L 13 51 L 5 47 Z" fill="#6e6a62" stroke="#403a33" stroke-width="1.1" />
      <path d="M 7.2 16.1 L 11.2 14.1 L 11.2 47.9 L 7.2 45.9 Z" fill="#e7ddc8" opacity="0.82" />
      <path d="M 5.9 45.7 L 11.9 48.6 L 11.9 50.9 L 5.9 47.8 Z" fill="#bdb5a7" opacity="0.75" />
      
      <path d="M 8.9 14.2 L 8.9 46.8" stroke="#403a33" stroke-width="0.9" opacity="0.38" />
      <path d="M 6.4 22.7 L 11.4 20.2" stroke="#403a33" stroke-width="0.9" opacity="0.4" />
      <path d="M 6.4 31.7 L 11.4 29.2" stroke="#403a33" stroke-width="0.9" opacity="0.4" />
      <path d="M 6.4 40.7 L 11.4 38.2" stroke="#403a33" stroke-width="0.9" opacity="0.4" />
    
      <rect x="7.3" y="23" width="3" height="5.5" rx="1" fill="#786f62" opacity="0.95" />
      <rect x="7.3" y="36" width="3" height="5.5" rx="1" fill="#786f62" opacity="0.95" />
      <circle cx="8.8" cy="24.9" r="0.55" fill="#d2c3a6" />
      <circle cx="8.8" cy="26.9" r="0.55" fill="#d2c3a6" />
      <circle cx="8.8" cy="37.9" r="0.55" fill="#d2c3a6" />
      <circle cx="8.8" cy="39.9" r="0.55" fill="#d2c3a6" />
    
    </g>
  
    <g>
      <path d="M 11 49 L 53 49 L 49 57 L 15 57 Z" fill="#6e6a62" stroke="#403a33" stroke-width="1.1" />
      <path d="M 14 50.3 L 50 50.3 L 47.2 54.4 L 16.8 54.4 Z" fill="#e7ddc8" opacity="0.82" />
      <path d="M 15.5 55.2 L 48.5 55.2 L 47.4 57 L 16.6 57 Z" fill="#bdb5a7" opacity="0.75" />
      
      <path d="M 18.5 50.4 L 16.8 56.7" stroke="#403a33" stroke-width="0.9" opacity="0.45" />
      <path d="M 29 49.7 L 27.7 56.3" stroke="#403a33" stroke-width="0.9" opacity="0.45" />
      <path d="M 39.5 49.7 L 38.6 56.3" stroke="#403a33" stroke-width="0.9" opacity="0.45" />
      <path d="M 50 50.4 L 49.3 56.7" stroke="#403a33" stroke-width="0.9" opacity="0.45" />
      <path d="M 14 53.2 L 50 53.2" stroke="#403a33" stroke-width="0.9" opacity="0.34" />
    
      <rect x="21.5" y="51.7" width="5.2" height="3.6" rx="1" fill="#786f62" opacity="0.95" />
      <rect x="37.3" y="51.7" width="5.2" height="3.6" rx="1" fill="#786f62" opacity="0.95" />
      <circle cx="23.1" cy="53.5" r="0.6" fill="#d2c3a6" />
      <circle cx="25.1" cy="53.5" r="0.6" fill="#d2c3a6" />
      <circle cx="38.9" cy="53.5" r="0.6" fill="#d2c3a6" />
      <circle cx="40.9" cy="53.5" r="0.6" fill="#d2c3a6" />
    
    </g>
  
    
    <g>
      <path d="M 4.5 8.5 L 14 4.5 L 14 16 L 4.5 20 Z" fill="#786f62" stroke="#403a33" stroke-width="1.1" />
      <path d="M 6.8 9.9 L 11.7 7.8 L 11.7 15.2 L 6.8 17.2 Z" fill="#bdb5a7" opacity="0.92" />
      <path d="M 5.9 9.1 L 12.6 6.2 L 12.6 8 L 5.9 10.7 Z" fill="#b89b67" opacity="0.9" />
    </g>
  
    <g>
      <path d="M 4.5 43.5 L 14 47.5 L 14 59 L 4.5 55 Z" fill="#6e6a62" stroke="#403a33" stroke-width="1.1" />
      <path d="M 6.8 46.3 L 11.7 48.4 L 11.7 55.7 L 6.8 53.7 Z" fill="#e7ddc8" opacity="0.92" />
      <path d="M 5.9 52.2 L 12.6 55.1 L 12.6 56.9 L 5.9 54.2 Z" fill="#b89b67" opacity="0.9" />
    </g>
  
    <g><rect x="18" y="2.2" width="4.5" height="2.2" rx="1" fill="#bdb5a7" opacity="0.95" /><rect x="27" y="2.2" width="4.5" height="2.2" rx="1" fill="#bdb5a7" opacity="0.95" /><rect x="36" y="2.2" width="4.5" height="2.2" rx="1" fill="#bdb5a7" opacity="0.95" /><rect x="17" y="59.8" width="5" height="2.2" rx="1" fill="#bdb5a7" opacity="0.95" /><rect x="26" y="59.8" width="5" height="2.2" rx="1" fill="#bdb5a7" opacity="0.95" /><rect x="35" y="59.8" width="5" height="2.2" rx="1" fill="#bdb5a7" opacity="0.95" /><rect x="44" y="59.8" width="5" height="2.2" rx="1" fill="#bdb5a7" opacity="0.95" /><rect x="1.8" y="18" width="2.2" height="4.5" rx="1" fill="#bdb5a7" opacity="0.95" /><rect x="1.8" y="27" width="2.2" height="4.5" rx="1" fill="#bdb5a7" opacity="0.95" /><rect x="1.8" y="36" width="2.2" height="4.5" rx="1" fill="#bdb5a7" opacity="0.95" /></g>
    
    <g transform="translate(14.5 31.5) rotate(-90)">
      <rect x="-0.8" y="-4.4" width="1.6" height="8.8" rx="0.8" fill="#403a33" />
      <path d="M 0 -4 L 6 -2.2 L 2.4 0.8 L 6 4 L 0 4 Z" fill="#b89b67" opacity="0.95" />
      <path d="M 0 -4 L 4.3 -2.5 L 0 0 Z" fill="#e7ddc8" opacity="0.84" />
    </g>
  
  </g>
</svg>
