<svg width="128" height="128" viewBox="0 0 128 128" fill="none" xmlns="http://www.w3.org/2000/svg">
  <g>
  <path d="M15 97L38 88L67 88L47 97H15Z" fill="#AFD278"/>

  <path d="M16 91L32 80L54 80L38 91H16Z" fill="#799A47"/>
  <path d="M32 80L32 64L54 64L54 80H32Z" fill="#D6DEE7"/>
  <path d="M54 80L66 71L66 55L54 64V80Z" fill="#93A0AE"/>
  <path d="M32 64L47 55L66 55L54 64H32Z" fill="#C68948"/>

  <path d="M39 93L60 78L89 78L68 93H39Z" fill="#69893B"/>
  <path d="M60 78L60 54L89 54L89 78H60Z" fill="#E9EFF4"/>
  <path d="M89 78L106 66L106 42L89 54V78Z" fill="#99A5B3"/>
  <path d="M60 54L81 42L106 42L89 54H60Z" fill="#D79C58"/>

  <path d="M69 93L86 81L111 81L94 93H69Z" fill="#86A650"/>
  <path d="M86 81L86 65L111 65L111 81H86Z" fill="#D9E1E8"/>
  <path d="M111 81L122 73L122 57L111 65V81Z" fill="#919EAD"/>
  <path d="M86 65L101 57L122 57L111 65H86Z" fill="#C08444"/>

  <path d="M65 78L65 37L80 37L80 78H65Z" fill="#D3DBE4"/>
  <path d="M80 78L91 70L91 29L80 37V78Z" fill="#8D9AA9"/>
  <path d="M65 37L76 29L91 29L80 37H65Z" fill="#B3BDCA"/>
  <rect x="71" y="48" width="4" height="7" rx="1.1" fill="#253141"/>
  <rect x="71" y="60" width="4" height="7" rx="1.1" fill="#253141"/>
  <rect x="77" y="48" width="4" height="7" rx="1.1" fill="#253141"/>
  <rect x="77" y="60" width="4" height="7" rx="1.1" fill="#253141"/>
  <path d="M71 29L78 23L85 29L78 34L71 29Z" fill="#E4B56C"/>

  <path d="M45 98L100 98" stroke="#739847" stroke-width="4" stroke-linecap="round"/>
  </g>
</svg>
