<svg width="128" height="128" viewBox="0 0 128 128" fill="none" xmlns="http://www.w3.org/2000/svg">
  <defs>
    <linearGradient id="plate" x1="64" y1="14" x2="64" y2="114" gradientUnits="userSpaceOnUse">
      <stop offset="0" stop-color="#223045"/>
      <stop offset="1" stop-color="#0D1523"/>
    </linearGradient>
    <linearGradient id="roofMain" x1="64" y1="24" x2="64" y2="60" gradientUnits="userSpaceOnUse">
      <stop offset="0" stop-color="#FFE6AE"/>
      <stop offset="1" stop-color="#C48333"/>
    </linearGradient>
    <linearGradient id="roofSide" x1="64" y1="33" x2="64" y2="74" gradientUnits="userSpaceOnUse">
      <stop offset="0" stop-color="#F0C267"/>
      <stop offset="1" stop-color="#9B5D26"/>
    </linearGradient>
    <linearGradient id="wall" x1="64" y1="37" x2="64" y2="98" gradientUnits="userSpaceOnUse">
      <stop offset="0" stop-color="#DCE4EE"/>
      <stop offset="1" stop-color="#717E91"/>
    </linearGradient>
    <filter id="shadow" x="6" y="8" width="116" height="116" filterUnits="userSpaceOnUse" color-interpolation-filters="sRGB">
      <feOffset dy="6"/>
      <feGaussianBlur stdDeviation="6"/>
      <feColorMatrix type="matrix" values="0 0 0 0 0.0117647 0 0 0 0 0.0313726 0 0 0 0 0.0705882 0 0 0 0.46 0"/>
    </filter>
  </defs>

  <g filter="url(#shadow)">
    <rect x="18" y="18" width="92" height="92" rx="18" fill="url(#plate)"/>
    <rect x="19.5" y="19.5" width="89" height="89" rx="16.5" stroke="#40516A" stroke-width="3"/>
    <rect x="25" y="25" width="78" height="78" rx="13" fill="#111B2B"/>
  </g>

  <path d="M27 92L39 75H89L101 92H27Z" fill="#33445C"/>
  <path d="M32 85H96V92H32V85Z" fill="#516581"/>
  <rect x="43" y="80" width="42" height="9" rx="2.5" fill="#1B2737"/>

  <path d="M48 48L64 34L80 48V92H48V48Z" fill="url(#wall)"/>
  <path d="M43 52L64 24L85 52H43Z" fill="url(#roofMain)"/>
  <rect x="57" y="63" width="14" height="29" rx="3" fill="#223045"/>
  <rect x="53" y="53" width="5" height="10" rx="1.4" fill="#223045"/>
  <rect x="70" y="53" width="5" height="10" rx="1.4" fill="#223045"/>
  <rect x="60" y="68" width="3" height="8" rx="1.2" fill="#F7DB95"/>
  <rect x="65" y="68" width="3" height="8" rx="1.2" fill="#F7DB95"/>

  <path d="M24 66L39 52L54 66V90H24V66Z" fill="#BCC7D6"/>
  <path d="M22 68L39 43L56 68H22Z" fill="url(#roofSide)"/>
  <rect x="31" y="71" width="4.5" height="4.5" rx="1.2" fill="#223045"/>
  <rect x="39" y="71" width="4.5" height="4.5" rx="1.2" fill="#223045"/>
  <rect x="35" y="79" width="7" height="11" rx="1.6" fill="#223045"/>

  <path d="M74 66L89 52L104 66V90H74V66Z" fill="#BCC7D6"/>
  <path d="M72 68L89 43L106 68H72Z" fill="url(#roofSide)"/>
  <rect x="81" y="71" width="4.5" height="4.5" rx="1.2" fill="#223045"/>
  <rect x="89" y="71" width="4.5" height="4.5" rx="1.2" fill="#223045"/>
  <rect x="85" y="79" width="7" height="11" rx="1.6" fill="#223045"/>

  <path d="M45 39V27L50 22L55 27V39H45Z" fill="#92A1B6"/>
  <path d="M73 39V24L78 19L83 24V39H73Z" fill="#92A1B6"/>
  <rect x="76" y="15" width="4" height="10" rx="1.4" fill="#74839B"/>

  <path d="M37 94H91" stroke="#1D293A" stroke-width="5" stroke-linecap="round"/>
  <circle cx="47" cy="96" r="1.8" fill="#CDA052"/>
  <circle cx="58" cy="96" r="1.8" fill="#CDA052"/>
  <circle cx="70" cy="96" r="1.8" fill="#CDA052"/>
  <circle cx="81" cy="96" r="1.8" fill="#CDA052"/>
</svg>
