<svg width="128" height="128" viewBox="0 0 128 128" fill="none" xmlns="http://www.w3.org/2000/svg">
  <g>
  <path d="M16 91L35 77L65 77L46 91H16Z" fill="#AB6A2E"/>
  <path d="M35 77L35 55L65 55L65 77H35Z" fill="#D7E0EA"/>
  <path d="M65 77L81 65L81 43L65 55V77Z" fill="#8B97A8"/>
  <path d="M35 55L54 43L81 43L65 55H35Z" fill="#EABA67"/>

  <path d="M43 92L64 76L97 76L76 92H43Z" fill="#C28137"/>
  <path d="M64 76L64 37L97 37L97 76H64Z" fill="#E7EEF4"/>
  <path d="M97 76L113 64L113 25L97 37V76Z" fill="#95A1B2"/>
  <path d="M64 37L84 25L113 25L97 37H64Z" fill="#FFDB91"/>

  <path d="M30 84L43 74L63 74L50 84H30Z" fill="#B77834"/>
  <path d="M43 74L43 58L63 58L63 74H43Z" fill="#DCE4EE"/>
  <path d="M63 74L74 66L74 50L63 58V74Z" fill="#909CAD"/>
  <path d="M43 58L56 50L74 50L63 58H43Z" fill="#F1C671"/>

  <path d="M74 92L74 61L87 61L87 92H74Z" fill="#263347"/>
  <rect x="78" y="50" width="4" height="7" rx="1.2" fill="#F6DA94"/>
  <rect x="85" y="50" width="4" height="7" rx="1.2" fill="#F6DA94"/>
  <rect x="89" y="17" width="6" height="16" rx="1.3" fill="#A8B4C4"/>
  <path d="M91 17L97 13L103 17L97 21L91 17Z" fill="#E8BE6E"/>

  <path d="M58 96L91 96" stroke="#D5A14C" stroke-width="4" stroke-linecap="round"/>
  </g>
</svg>
