<svg width="128" height="128" viewBox="0 0 128 128" fill="none" xmlns="http://www.w3.org/2000/svg">
  <path d="M30 96L47 84H84L67 96H30Z" fill="#A06C36"/>
  <path d="M47 84V61H84V84H47Z" fill="#E7D7BC"/>
  <path d="M84 84L98 75V52L84 61V84Z" fill="#A8A19A"/>
  <path d="M47 61L63 52H98L84 61H47Z" fill="#C04B37"/>
  <path d="M53 68H78" stroke="#EEC36B" stroke-width="6" stroke-linecap="round"/>
  <path d="M53 74H78" stroke="#F5E0A4" stroke-width="6" stroke-linecap="round"/>
  <path d="M53 80H78" stroke="#EEC36B" stroke-width="6" stroke-linecap="round"/>
  <path d="M54 96V81H59V96H54Z" fill="#5A3822"/>
  <path d="M75 96V81H80V96H75Z" fill="#5A3822"/>
  <ellipse cx="39" cy="92" rx="7" ry="4" fill="#C79156"/>
  <path d="M32 92C33 103 45 103 46 92V104C45 112 33 112 32 104V92Z" fill="#9B6A3A"/>
  <path d="M34 99H44" stroke="#505A67" stroke-width="2"/>
  <ellipse cx="92" cy="91" rx="8" ry="5" fill="#D8B15C"/>
  <path d="M85 91L92 80L99 91L92 102L85 91Z" fill="#E7C46E"/>
  <path d="M92 80V102" stroke="#B38339" stroke-width="2"/>
</svg>
