<svg width="128" height="128" viewBox="0 0 128 128" fill="none" xmlns="http://www.w3.org/2000/svg">
  <g>
  <path d="M12 92L33 76L66 76L45 92H12Z" fill="#A7672D"/>
  <path d="M33 76L33 52L66 52L66 76H33Z" fill="#D7E0EA"/>
  <path d="M66 76L83 63L83 39L66 52V76Z" fill="#8A96A8"/>
  <path d="M33 52L54 39L83 39L66 52H33Z" fill="#E9BB67"/>

  <path d="M42 93L65 76L102 76L79 93H42Z" fill="#C07F36"/>
  <path d="M65 76L65 33L102 33L102 76H65Z" fill="#E9EFF5"/>
  <path d="M102 76L118 64L118 21L102 33V76Z" fill="#96A2B3"/>
  <path d="M65 33L88 21L118 21L102 33H65Z" fill="#FFDC92"/>

  <path d="M25 84L40 73L63 73L48 84H25Z" fill="#B87934"/>
  <path d="M40 73L40 55L63 55L63 73H40Z" fill="#DCE4EE"/>
  <path d="M63 73L75 64L75 46L63 55V73Z" fill="#919DAD"/>
  <path d="M40 55L56 46L75 46L63 55H40Z" fill="#F1C671"/>

  <path d="M81 84L96 73L118 73L103 84H81Z" fill="#B87934"/>
  <path d="M96 73L96 55L118 55L118 73H96Z" fill="#DCE4EE"/>
  <path d="M118 73L126 67L126 49L118 55V73Z" fill="#919DAD"/>
  <path d="M96 55L111 46L126 46L118 55H96Z" fill="#F1C671"/>

  <path d="M76 93L76 58L90 58L90 93H76Z" fill="#263347"/>
  <rect x="80" y="48" width="4" height="7" rx="1.2" fill="#F6DA94"/>
  <rect x="87" y="48" width="4" height="7" rx="1.2" fill="#F6DA94"/>

  <rect x="90" y="10" width="7" height="28" rx="1.6" fill="#AAB5C5"/>
  <path d="M93.5 10L101 5L108 10L101 15L93.5 10Z" fill="#E9BF6F"/>
  <rect x="48" y="34" width="6" height="14" rx="1.4" fill="#9CA8B9"/>
  <rect x="103" y="27" width="5" height="12" rx="1.3" fill="#9CA8B9"/>

  <path d="M56 97L95 97" stroke="#D5A14C" stroke-width="4" stroke-linecap="round"/>
  </g>
</svg>
