<svg width="128" height="128" viewBox="0 0 128 128" fill="none" xmlns="http://www.w3.org/2000/svg">
  <defs>
    <linearGradient id="plate" x1="64" y1="14" x2="64" y2="114" gradientUnits="userSpaceOnUse">
      <stop offset="0" stop-color="#223045"/>
      <stop offset="1" stop-color="#0D1523"/>
    </linearGradient>
    <linearGradient id="roofMain" x1="64" y1="18" x2="64" y2="58" gradientUnits="userSpaceOnUse">
      <stop offset="0" stop-color="#FFEAB4"/>
      <stop offset="1" stop-color="#C37D2E"/>
    </linearGradient>
    <linearGradient id="roofSide" x1="64" y1="29" x2="64" y2="73" gradientUnits="userSpaceOnUse">
      <stop offset="0" stop-color="#EFBF62"/>
      <stop offset="1" stop-color="#955724"/>
    </linearGradient>
    <linearGradient id="wall" x1="64" y1="34" x2="64" y2="99" gradientUnits="userSpaceOnUse">
      <stop offset="0" stop-color="#DEE6EF"/>
      <stop offset="1" stop-color="#6E7B8F"/>
    </linearGradient>
    <filter id="shadow" x="6" y="8" width="116" height="116" filterUnits="userSpaceOnUse" color-interpolation-filters="sRGB">
      <feOffset dy="6"/>
      <feGaussianBlur stdDeviation="6"/>
      <feColorMatrix type="matrix" values="0 0 0 0 0.0117647 0 0 0 0 0.0313726 0 0 0 0 0.0705882 0 0 0 0.46 0"/>
    </filter>
  </defs>

  <g filter="url(#shadow)">
    <rect x="18" y="18" width="92" height="92" rx="18" fill="url(#plate)"/>
    <rect x="19.5" y="19.5" width="89" height="89" rx="16.5" stroke="#40516A" stroke-width="3"/>
    <rect x="25" y="25" width="78" height="78" rx="13" fill="#111B2B"/>
  </g>

  <path d="M25 93L38 73H90L103 93H25Z" fill="#34475F"/>
  <path d="M30 85H98V93H30V85Z" fill="#566B88"/>
  <rect x="40" y="80" width="48" height="9" rx="2.5" fill="#1B2737"/>

  <path d="M48 44L64 28L80 44V93H48V44Z" fill="url(#wall)"/>
  <path d="M42 48L64 18L86 48H42Z" fill="url(#roofMain)"/>
  <rect x="58" y="58" width="12" height="35" rx="3" fill="#223045"/>
  <rect x="53" y="47" width="5" height="10" rx="1.4" fill="#223045"/>
  <rect x="70" y="47" width="5" height="10" rx="1.4" fill="#223045"/>
  <rect x="61" y="65" width="2.8" height="8" rx="1.1" fill="#F9DE99"/>
  <rect x="65" y="65" width="2.8" height="8" rx="1.1" fill="#F9DE99"/>

  <path d="M20 63L36 48L52 63V91H20V63Z" fill="#BEC8D7"/>
  <path d="M18 66L36 40L54 66H18Z" fill="url(#roofSide)"/>
  <rect x="28" y="69" width="4" height="4.5" rx="1.1" fill="#223045"/>
  <rect x="35" y="69" width="4" height="4.5" rx="1.1" fill="#223045"/>
  <rect x="31" y="78" width="8" height="13" rx="1.6" fill="#223045"/>

  <path d="M76 63L92 48L108 63V91H76V63Z" fill="#BEC8D7"/>
  <path d="M74 66L92 40L110 66H74Z" fill="url(#roofSide)"/>
  <rect x="84" y="69" width="4" height="4.5" rx="1.1" fill="#223045"/>
  <rect x="91" y="69" width="4" height="4.5" rx="1.1" fill="#223045"/>
  <rect x="87" y="78" width="8" height="13" rx="1.6" fill="#223045"/>

  <path d="M36 54L46 44L56 54V76H36V54Z" fill="#AEBBCC"/>
  <path d="M34 56L46 38L58 56H34Z" fill="#D7A451"/>
  <path d="M72 54L82 44L92 54V76H72V54Z" fill="#AEBBCC"/>
  <path d="M70 56L82 38L94 56H70Z" fill="#D7A451"/>

  <path d="M60 28V13L64 9L68 13V28H60Z" fill="#96A5BA"/>
  <rect x="62" y="5" width="4" height="8" rx="1.4" fill="#7A8AA1"/>
  <path d="M45 35V24L50 19L55 24V35H45Z" fill="#94A3B8"/>
  <path d="M73 35V20L78 15L83 20V35H73Z" fill="#94A3B8"/>

  <path d="M35 95H93" stroke="#1D293A" stroke-width="5" stroke-linecap="round"/>
  <circle cx="44" cy="97" r="1.8" fill="#CDA052"/>
  <circle cx="54" cy="97" r="1.8" fill="#CDA052"/>
  <circle cx="64" cy="97" r="1.8" fill="#CDA052"/>
  <circle cx="74" cy="97" r="1.8" fill="#CDA052"/>
  <circle cx="84" cy="97" r="1.8" fill="#CDA052"/>
</svg>
