<svg width="128" height="128" viewBox="0 0 128 128" fill="none" xmlns="http://www.w3.org/2000/svg">


  <path d="M16 100L32 90H72L56 100H16Z" fill="#8E6236"/>
  <path d="M32 90V78H72V90H32Z" fill="#D0D6DE"/>
  <path d="M72 90L94 78V66L72 78V90Z" fill="#97A3B3"/>
  <path d="M32 78L50 66H94L72 78H32Z" fill="#6D737D"/>


  <path d="M72 73V39" stroke="#616C79" stroke-width="4" stroke-linecap="round"/>
  <path d="M62 47L72 39" stroke="#9FB6D7" stroke-width="3" stroke-linecap="round"/>
  <path d="M82 47L72 39" stroke="#9FB6D7" stroke-width="3" stroke-linecap="round"/>
  <path d="M58 56L72 48" stroke="#9FB6D7" stroke-width="2.5" stroke-linecap="round"/>
  <path d="M86 56L72 48" stroke="#9FB6D7" stroke-width="2.5" stroke-linecap="round"/>

  <path d="M72 37C81 37, 88 44, 88 53" stroke="#9FD8FF" stroke-width="3" stroke-linecap="round"/>
  <path d="M72 30C85 30, 96 41, 96 54" stroke="#69C2FF" stroke-width="3" stroke-linecap="round"/>
  <path d="M17 95L25 87L33 95L25 103L17 95Z" fill="#67C8FF"/>

</svg>
