<svg width="128" height="128" viewBox="0 0 128 128" fill="none" xmlns="http://www.w3.org/2000/svg">
  <path d="M19 95L35 88H55L39 95H19Z" fill="#A1C76A"/>

  <path d="M23 90L38 80H58L43 90H23Z" fill="#739445"/>
  <path d="M38 80V65H58V80H38Z" fill="#D8E0E8"/>
  <path d="M58 80L70 71V56L58 65V80Z" fill="#93A0AF"/>
  <path d="M38 65L52 56H70L58 65H38Z" fill="#C88E4D"/>
  <rect x="46" y="71" width="6" height="9" rx="1.2" fill="#2A3444"/>

  <path d="M49 93L65 82H88L72 93H49Z" fill="#6F8F3E"/>
  <path d="M65 82V61H88V82H65Z" fill="#E6ECF2"/>
  <path d="M88 82L102 72V51L88 61V82Z" fill="#97A4B2"/>
  <path d="M65 61L81 51H102L88 61H65Z" fill="#D49A58"/>
  <rect x="75" y="71" width="6" height="11" rx="1.2" fill="#2B3543"/>
  <rect x="79" y="64" width="3.5" height="5" rx="1" fill="#EED69C"/>

  <path d="M30 96L92 96" stroke="#6F9343" stroke-width="4" stroke-linecap="round"/>
</svg>
