<svg width="128" height="128" viewBox="0 0 128 128" fill="none" xmlns="http://www.w3.org/2000/svg">
  <ellipse cx="64" cy="96" rx="34" ry="12" fill="rgba(41,26,10,0.28)"/>
  <ellipse cx="64" cy="94" rx="28" ry="10" fill="#2A2016"/>
  <ellipse cx="64" cy="92" rx="20" ry="7" fill="#0E1822"/>
  <ellipse cx="64" cy="88" rx="13" ry="5" fill="rgba(146,245,255,0.18)"/>

  <path d="M64 28L78 46L72 82H56L50 46L64 28Z" fill="#173447"/>
  <path d="M64 36L74 49L69 77H59L54 49L64 36Z" fill="#2FD0EA"/>
  <path d="M64 43L70 52L67 71H61L58 52L64 43Z" fill="#F0FFFF"/>

  <path d="M33 93L46 86L53 95L47 106L34 104L33 93Z" fill="#6F4B20"/>
  <path d="M95 93L82 86L75 95L81 106L94 104L95 93Z" fill="#6F4B20"/>
  <path d="M24 88L37 82L43 89L37 99L25 98L24 88Z" fill="#A26A2B"/>
  <path d="M104 88L91 82L85 89L91 99L103 98L104 88Z" fill="#A26A2B"/>

  <ellipse cx="64" cy="86" rx="24" ry="8" stroke="rgba(255,221,125,0.62)" stroke-width="3"/>
  <ellipse cx="64" cy="86" rx="31" ry="11" stroke="rgba(146,245,255,0.45)" stroke-width="2"/>
</svg>
