<svg xmlns="http://www.w3.org/2000/svg" viewBox="0 0 64 64">
  <defs>
    <filter id="shadow" x="-24%" y="-24%" width="148%" height="148%">
      <feDropShadow dx="0" dy="1.15" stdDeviation="1.1" flood-color="#2e1c10" flood-opacity="0.42"/>
    </filter>
  </defs>
  <g filter="url(#shadow)">
    <path d="M 18 42 L 46 42 L 42 50 L 22 50 Z" fill="#5a3c23" stroke="#2e1c10" stroke-width="1.1" />
    <path d="M 23 38 L 41 38 L 39 42 L 25 42 Z" fill="#a57a46" opacity="0.95" />
    <circle cx="24" cy="50" r="4" fill="#6e6357" stroke="#2e1c10" stroke-width="1" />
    <circle cx="40" cy="50" r="4" fill="#6e6357" stroke="#2e1c10" stroke-width="1" />
    <circle cx="24" cy="50" r="1.4" fill="#d8c8aa" />
    <circle cx="40" cy="50" r="1.4" fill="#d8c8aa" />
    <path d="M 30 22 L 34 22 L 39 42 L 35 42 Z" fill="#5a3c23" stroke="#2e1c10" stroke-width="1" />
    <path d="M 24 39 L 32 23 L 40 39" fill="none" stroke="#7a5834" stroke-width="1.4" stroke-linecap="round" stroke-linejoin="round" />
    <path d="M 32 19 L 32 8" fill="none" stroke="#5a3c23" stroke-width="2.2" stroke-linecap="round" />
    <path d="M 32 8 L 30 4.8 L 34 4.8 Z" fill="#d7b27a" stroke="#2e1c10" stroke-width="0.9" />
    <path d="M 28 22 C 29 18, 35 18, 36 22" fill="none" stroke="#d7c59e" stroke-width="0.9" opacity="0.8" />
    <path d="M 23 45 L 41 45" stroke="#d7c59e" stroke-width="0.8" opacity="0.55" />
  </g>
</svg>
