<svg width="128" height="128" viewBox="0 0 128 128" fill="none" xmlns="http://www.w3.org/2000/svg">
  <g>
  <path d="M28 86L43 75L66 75L51 86H28Z" fill="#B67733"/>
  <path d="M43 75L43 55L66 55L66 75H43Z" fill="#D7E0EA"/>
  <path d="M66 75L81 64L81 44L66 55V75Z" fill="#8E99AA"/>
  <path d="M43 55L58 44L81 44L66 55H43Z" fill="#F1C875"/>

  <path d="M53 86L69 74L95 74L79 86H53Z" fill="#C18137"/>
  <path d="M69 74L69 46L95 46L95 74H69Z" fill="#E3EAF1"/>
  <path d="M95 74L110 63L110 35L95 46V74Z" fill="#95A0B1"/>
  <path d="M69 46L85 35L110 35L95 46H69Z" fill="#FFD98C"/>
  <path d="M78 86L78 65L87 65L87 86H78Z" fill="#263347"/>
  <rect x="82" y="56" width="4" height="6" rx="1.2" fill="#F6DA94"/>

  <path d="M16 89L30 79L50 79L36 89H16Z" fill="#A6682E"/>
  <path d="M30 79L30 62L50 62L50 79H30Z" fill="#CFD8E4"/>
  <path d="M50 79L61 71L61 54L50 62V79Z" fill="#8792A4"/>
  <path d="M30 62L44 54L61 54L50 62H30Z" fill="#EABA67"/>

  <path d="M95 46V31L99 28L103 31V40L95 46Z" fill="#A5B1C1"/>
  <path d="M62 92L87 92" stroke="#D5A14C" stroke-width="4" stroke-linecap="round"/>
  </g>
</svg>
