<svg xmlns="http://www.w3.org/2000/svg" viewBox="0 0 64 64">
  <defs>
    <filter id="shadow" x="-24%" y="-24%" width="148%" height="148%">
      <feDropShadow dx="0" dy="1.15" stdDeviation="1.1" flood-color="#341f0d" flood-opacity="0.42"/>
    </filter>
  </defs>
  <g filter="url(#shadow)">
    
    <g>
      <path d="M 15 7 L 49 7 L 45 13 L 19 13 Z" fill="#694622" stroke="#341f0d" stroke-width="1.1" />
      <path d="M 17 8 L 47 8 L 43.5 11.7 L 20.5 11.7 Z" fill="#d6ad74" opacity="0.82" />
      <path d="M 19 12.2 L 45 12.2 L 43.7 13 L 20.3 13 Z" fill="#a77543" opacity="0.75" />
      <path d="M 18 13 L 18 7.5 L 19.4 6.2 L 20.8 7.5 L 20.8 13" fill="#a77543" opacity="0.88" /><path d="M 19.4 7.5 L 19.4 13" stroke="#341f0d" stroke-width="0.65" opacity="0.35" /><path d="M 22 13 L 22 7.5 L 23.4 6.2 L 24.8 7.5 L 24.8 13" fill="#a77543" opacity="0.88" /><path d="M 23.4 7.5 L 23.4 13" stroke="#341f0d" stroke-width="0.65" opacity="0.35" /><path d="M 26 13 L 26 7.5 L 27.4 6.2 L 28.8 7.5 L 28.8 13" fill="#a77543" opacity="0.88" /><path d="M 27.4 7.5 L 27.4 13" stroke="#341f0d" stroke-width="0.65" opacity="0.35" /><path d="M 30 13 L 30 7.5 L 31.4 6.2 L 32.8 7.5 L 32.8 13" fill="#a77543" opacity="0.88" /><path d="M 31.4 7.5 L 31.4 13" stroke="#341f0d" stroke-width="0.65" opacity="0.35" /><path d="M 34 13 L 34 7.5 L 35.4 6.2 L 36.8 7.5 L 36.8 13" fill="#a77543" opacity="0.88" /><path d="M 35.4 7.5 L 35.4 13" stroke="#341f0d" stroke-width="0.65" opacity="0.35" /><path d="M 38 13 L 38 7.5 L 39.4 6.2 L 40.8 7.5 L 40.8 13" fill="#a77543" opacity="0.88" /><path d="M 39.4 7.5 L 39.4 13" stroke="#341f0d" stroke-width="0.65" opacity="0.35" /><path d="M 42 13 L 42 7.5 L 43.4 6.2 L 44.8 7.5 L 44.8 13" fill="#a77543" opacity="0.88" /><path d="M 43.4 7.5 L 43.4 13" stroke="#341f0d" stroke-width="0.65" opacity="0.35" />
    </g>
  
    <g>
      <path d="M 51 11 L 59 15 L 59 47 L 51 51 Z" fill="#694622" stroke="#341f0d" stroke-width="1.1" />
      <path d="M 52.8 14.1 L 56.8 16.1 L 56.8 45.9 L 52.8 47.9 Z" fill="#d6ad74" opacity="0.82" />
      <path d="M 52.1 48.6 L 58.1 45.7 L 58.1 47.8 L 52.1 50.9 Z" fill="#a77543" opacity="0.75" />
      <path d="M 57.7 16 L 52.5 16 L 59.2 17.3 L 52.5 18.6 L 57.7 18.6" fill="#a77543" opacity="0.88" /><path d="M 52.5 17.3 L 57.7 17.3" stroke="#341f0d" stroke-width="0.65" opacity="0.3" /><path d="M 57.7 20 L 52.5 20 L 59.2 21.3 L 52.5 22.6 L 57.7 22.6" fill="#a77543" opacity="0.88" /><path d="M 52.5 21.3 L 57.7 21.3" stroke="#341f0d" stroke-width="0.65" opacity="0.3" /><path d="M 57.7 24 L 52.5 24 L 59.2 25.3 L 52.5 26.6 L 57.7 26.6" fill="#a77543" opacity="0.88" /><path d="M 52.5 25.3 L 57.7 25.3" stroke="#341f0d" stroke-width="0.65" opacity="0.3" /><path d="M 57.7 28 L 52.5 28 L 59.2 29.3 L 52.5 30.6 L 57.7 30.6" fill="#a77543" opacity="0.88" /><path d="M 52.5 29.3 L 57.7 29.3" stroke="#341f0d" stroke-width="0.65" opacity="0.3" /><path d="M 57.7 32 L 52.5 32 L 59.2 33.3 L 52.5 34.6 L 57.7 34.6" fill="#a77543" opacity="0.88" /><path d="M 52.5 33.3 L 57.7 33.3" stroke="#341f0d" stroke-width="0.65" opacity="0.3" /><path d="M 57.7 36 L 52.5 36 L 59.2 37.3 L 52.5 38.6 L 57.7 38.6" fill="#a77543" opacity="0.88" /><path d="M 52.5 37.3 L 57.7 37.3" stroke="#341f0d" stroke-width="0.65" opacity="0.3" /><path d="M 57.7 40 L 52.5 40 L 59.2 41.3 L 52.5 42.6 L 57.7 42.6" fill="#a77543" opacity="0.88" /><path d="M 52.5 41.3 L 57.7 41.3" stroke="#341f0d" stroke-width="0.65" opacity="0.3" /><path d="M 57.7 44 L 52.5 44 L 59.2 45.3 L 52.5 46.6 L 57.7 46.6" fill="#a77543" opacity="0.88" /><path d="M 52.5 45.3 L 57.7 45.3" stroke="#341f0d" stroke-width="0.65" opacity="0.3" />
    </g>
  
    <g>
      <path d="M 11 49 L 53 49 L 49 57 L 15 57 Z" fill="#694622" stroke="#341f0d" stroke-width="1.1" />
      <path d="M 14 50.3 L 50 50.3 L 47.2 54.4 L 16.8 54.4 Z" fill="#d6ad74" opacity="0.82" />
      <path d="M 15.5 55.2 L 48.5 55.2 L 47.4 57 L 16.6 57 Z" fill="#a77543" opacity="0.75" />
      <path d="M 16 56.7 L 16 49.7 L 17.4 48.2 L 18.8 49.7 L 18.8 56.7" fill="#a77543" opacity="0.88" /><path d="M 17.4 49.7 L 17.4 56.7" stroke="#341f0d" stroke-width="0.65" opacity="0.35" /><path d="M 20 56.7 L 20 49.7 L 21.4 48.2 L 22.8 49.7 L 22.8 56.7" fill="#a77543" opacity="0.88" /><path d="M 21.4 49.7 L 21.4 56.7" stroke="#341f0d" stroke-width="0.65" opacity="0.35" /><path d="M 24 56.7 L 24 49.7 L 25.4 48.2 L 26.8 49.7 L 26.8 56.7" fill="#a77543" opacity="0.88" /><path d="M 25.4 49.7 L 25.4 56.7" stroke="#341f0d" stroke-width="0.65" opacity="0.35" /><path d="M 28 56.7 L 28 49.7 L 29.4 48.2 L 30.8 49.7 L 30.8 56.7" fill="#a77543" opacity="0.88" /><path d="M 29.4 49.7 L 29.4 56.7" stroke="#341f0d" stroke-width="0.65" opacity="0.35" /><path d="M 32 56.7 L 32 49.7 L 33.4 48.2 L 34.8 49.7 L 34.8 56.7" fill="#a77543" opacity="0.88" /><path d="M 33.4 49.7 L 33.4 56.7" stroke="#341f0d" stroke-width="0.65" opacity="0.35" /><path d="M 36 56.7 L 36 49.7 L 37.4 48.2 L 38.8 49.7 L 38.8 56.7" fill="#a77543" opacity="0.88" /><path d="M 37.4 49.7 L 37.4 56.7" stroke="#341f0d" stroke-width="0.65" opacity="0.35" /><path d="M 40 56.7 L 40 49.7 L 41.4 48.2 L 42.8 49.7 L 42.8 56.7" fill="#a77543" opacity="0.88" /><path d="M 41.4 49.7 L 41.4 56.7" stroke="#341f0d" stroke-width="0.65" opacity="0.35" /><path d="M 44 56.7 L 44 49.7 L 45.4 48.2 L 46.8 49.7 L 46.8 56.7" fill="#a77543" opacity="0.88" /><path d="M 45.4 49.7 L 45.4 56.7" stroke="#341f0d" stroke-width="0.65" opacity="0.35" /><path d="M 48 56.7 L 48 49.7 L 49.4 48.2 L 50.8 49.7 L 50.8 56.7" fill="#a77543" opacity="0.88" /><path d="M 49.4 49.7 L 49.4 56.7" stroke="#341f0d" stroke-width="0.65" opacity="0.35" />
    </g>
  
    
    <g>
      <path d="M 50 4.5 L 59.5 8.5 L 59.5 20 L 50 16 Z" fill="#694622" stroke="#341f0d" stroke-width="1.1" />
      <path d="M 52.3 7.8 L 57.2 9.9 L 57.2 17.2 L 52.3 15.2 Z" fill="#a77543" opacity="0.92" />
      <path d="M 51.4 6.2 L 58.1 9.1 L 58.1 10.7 L 51.4 8 Z" fill="#ebd79d" opacity="0.9" />
    </g>
  
    <g>
      <path d="M 50 47.5 L 59.5 43.5 L 59.5 55 L 50 59 Z" fill="#694622" stroke="#341f0d" stroke-width="1.1" />
      <path d="M 52.3 48.4 L 57.2 46.3 L 57.2 53.7 L 52.3 55.7 Z" fill="#a77543" opacity="0.92" />
      <path d="M 51.4 55.1 L 58.1 52.2 L 58.1 54.2 L 51.4 56.9 Z" fill="#ebd79d" opacity="0.9" />
    </g>
  
    <g><rect x="18" y="2.2" width="4.5" height="2.2" rx="1" fill="#a77543" opacity="0.95" /><rect x="27" y="2.2" width="4.5" height="2.2" rx="1" fill="#a77543" opacity="0.95" /><rect x="36" y="2.2" width="4.5" height="2.2" rx="1" fill="#a77543" opacity="0.95" /><rect x="17" y="59.8" width="5" height="2.2" rx="1" fill="#a77543" opacity="0.95" /><rect x="26" y="59.8" width="5" height="2.2" rx="1" fill="#a77543" opacity="0.95" /><rect x="35" y="59.8" width="5" height="2.2" rx="1" fill="#a77543" opacity="0.95" /><rect x="44" y="59.8" width="5" height="2.2" rx="1" fill="#a77543" opacity="0.95" /><rect x="60" y="18" width="2.2" height="4.5" rx="1" fill="#a77543" opacity="0.95" /><rect x="60" y="27" width="2.2" height="4.5" rx="1" fill="#a77543" opacity="0.95" /><rect x="60" y="36" width="2.2" height="4.5" rx="1" fill="#a77543" opacity="0.95" /></g>
    
    <g transform="translate(48.5 31.5) rotate(90)">
      <rect x="-0.8" y="-4.4" width="1.6" height="8.8" rx="0.8" fill="#341f0d" />
      <path d="M 0 -4 L 6 -2.2 L 2.4 0.8 L 6 4 L 0 4 Z" fill="#ebd79d" opacity="0.95" />
      <path d="M 0 -4 L 4.3 -2.5 L 0 0 Z" fill="#d6ad74" opacity="0.84" />
    </g>
  
  </g>
</svg>
