<svg width="128" height="128" viewBox="0 0 128 128" fill="none" xmlns="http://www.w3.org/2000/svg">

  <path d="M6 108L38 90H100L68 108H6Z" fill="#5F554A"/>
  <path d="M38 90V79H100V90H38Z" fill="#C8D0DB"/>
  <path d="M100 90L121 78V67L100 79V90Z" fill="#8291A3"/>
  <path d="M38 79L59 67H121L100 79H38Z" fill="#7F6851"/>

  <path d="M24 91L40 81H62L46 91H24Z" fill="#8F9BA9"/>
  <path d="M40 81V68H62V81H40Z" fill="#D8E0EA"/>
  <path d="M62 81L76 73V60L62 68V81Z" fill="#7E8C9C"/>
  <path d="M40 68L54 60H76L62 68H40Z" fill="#687483"/>
  <circle cx="50" cy="75" r="6" fill="#344658"/>
  <circle cx="50" cy="75" r="2.5" fill="#A8DFFF"/>

  <path d="M58 72L84 57L111 72L85 87L58 72Z" fill="#E3EBF5"/>
  <path d="M85 87V65" stroke="#556779" stroke-width="4" stroke-linecap="round"/>
  <path d="M58 72L44 79" stroke="#556779" stroke-width="5" stroke-linecap="round"/>
  <path d="M85 65L101 55" stroke="#556779" stroke-width="5" stroke-linecap="round"/>
  <path d="M96 54L110 46L120 51L106 59L96 54Z" fill="#9AD8FF"/>

  <path d="M86 63L107 51L121 59L100 71L86 63Z" fill="#C8F1FF"/>
  <path d="M100 71L113 79" stroke="#5A6E82" stroke-width="4" stroke-linecap="round"/>
  <circle cx="112" cy="79" r="6" fill="#2D4156"/>
  <circle cx="112" cy="79" r="2.5" fill="#DBF8FF"/>

  <path d="M54 67V40H66V67H54Z" fill="#A0AEBD"/>
  <path d="M66 67L75 62V35L66 40V67Z" fill="#718094"/>
  <path d="M54 40L66 35H75L66 40H54Z" fill="#D6E3F0"/>
  <path d="M60 39V20" stroke="#8CD8FF" stroke-width="4" stroke-linecap="round"/>
  <circle cx="60" cy="17" r="4" fill="#DFF7FF"/>

  <path d="M93 48L117 34" stroke="#77CFFF" stroke-width="4" stroke-linecap="round"/>
  <path d="M101 45L120 30" stroke="#D6F8FF" stroke-width="3" stroke-linecap="round"/>
  <path d="M112 34L121 28" stroke="#EFFDFF" stroke-width="2.5" stroke-linecap="round"/>

  <path d="M18 103C29 95, 46 95, 57 103" stroke="#C89249" stroke-width="4" stroke-linecap="round"/>
  <path d="M74 98C81 92, 94 91, 103 96" stroke="#A0D8FF" stroke-width="3" stroke-linecap="round"/>

</svg>
